<svg xmlns:xsi="http://www.w3.org/2001/XMLSchema-instance" xmlns="http://www.w3.org/2000/svg" width="79.997"
     height="80.137" version="1.0">
    <defs/>
    <path fill="none" stroke="#333" stroke-linecap="round" stroke-linejoin="round" stroke-width="5"
          d="M43.907 47.044V7.096" transform="matrix(1.65267 0 0 1.50249 -11.826 -6.284)"/>
    <path fill="#333"
          d="M1.343 27.91C5.466 18.994 7.802 9.18 13.274.911 23.09-3.417 24.82 8.764 27.476 14.563c2.41 5.835 4.94 11.646 6.723 17.674-2.422 8.119-10.582-.766-12.576-3.233-6.58-1.063-12.603.742-15.168 6.25-5.33 2.663-8.368-4.005-5.112-7.344zm20.365-6.282l-4.38-12.926c-1.838 6.128-9.185 15.267 4.38 12.926z"/>
    <path fill="#7f7f7f"
          d="M12.697 71.541c5.485.529 21.904-2.79 17.194 6.212-6.624 3.303-14.526.225-21.724 1.395-9.378.154-6.408-9.586-1.138-12.904 2.36-5.379 12.347-10.543 9.637-15.632-4.992 1.614-19.444.024-11.734-6.325 7.675-.834 17.035-1.807 24.045.714 4.672 7.292-6.455 12.116-9.361 18.046-2.288 2.844-4.56 5.698-6.919 8.494z"/>
    <path fill="#b3b3b3" fill-rule="evenodd" stroke="#333" stroke-linecap="round" stroke-linejoin="round"
          stroke-width="3.712" d="M34.11 42.744l9.281 12.919 10.313-12.61-19.594-.309z"
          transform="matrix(1.65267 0 0 1.50249 -11.826 -6.284)"/>
</svg>